<?xml version="1.0" encoding="UTF-8"?>
<svg viewBox="0 0 48 48" xmlns="http://www.w3.org/2000/svg">
 <defs>
  <radialGradient id="d" cx="46.37" cy="56.54" r="27.457" gradientTransform="matrix(1 0 0 .13712 0 48.787)" gradientUnits="userSpaceOnUse">
   <stop stop-color="#2e3436" offset="0"/>
   <stop stop-color="#2e3436" stop-opacity="0" offset="1"/>
  </radialGradient>
  <linearGradient id="e" x2="0" y1="5.353" y2="42.619" gradientUnits="userSpaceOnUse">
   <stop stop-color="#fff" stop-opacity=".8" offset="0"/>
   <stop stop-color="#fff" stop-opacity="0" offset="1"/>
  </linearGradient>
  <linearGradient id="f" x1="-3.655" x2="23.875" y1="-42.14" y2="28.921" gradientUnits="userSpaceOnUse">
   <stop stop-color="#fff" offset="0"/>
   <stop stop-color="#fff" stop-opacity="0" offset="1"/>
  </linearGradient>
 </defs>
 <path transform="matrix(.86076 0 0 .83734 -15.917 -4.1188)" d="m73.832 56.54a27.457 3.765 0 1 1 -54.914 0 27.457 3.765 0 1 1 54.914 0z" fill="url(#d)" opacity=".8"/>
 <path d="m23.746 4.8366c-8.8025 0.23752-10.459 6.7344-9.9886 11.622 0.07298 0.759 0.41965 1.4512 0.96936 2.0652 0.05164-0.48179 0.12211-0.95571 0.22127-1.4224-0.03689 0.4142-0.05268 0.83808-0.05268 1.2644 0 3.935 1.6143 7.4114 4.0671 9.4618-0.1634 0.96194-0.5311 1.7831-1.0747 2.7816l-9.1878 1.9703c-4.4539 1.0303-4.7909 7.3722-4.4885 10.589 39.677-0.11259-0.076665 0.066286 39.659-0.084293-0.13599-3.5169-0.63288-9.7682-5.1629-10.737l-8.7031-1.6542c-6.6e-4 -0.0281 2e-3 -0.05618 0-0.08429l-0.53736-2.9608c2.3391-2.0694 3.8669-5.4566 3.8669-9.2827 0-0.03864 3.11e-4 -0.07736 0-0.1159 0.03777 0.1928 0.07538 0.38343 0.10537 0.5479 0.49884-0.67264 0.38184-1.8241 0.51629-2.729 0.69955-4.7081-1.9515-11.093-9.3248-11.232-0.299-0.00562-0.6011-0.00766-0.88506 0z" fill="#555753" fill-rule="evenodd" stroke="#323232" stroke-width="1.042"/>
 <path d="m23.781 5.875c-4.1455 0.11186-6.3474 1.609-7.625 3.5938-1.2217 1.8978-1.5403 4.3848-1.375 6.5938 0.31518-0.04369 0.63313 0.05826 0.86413 0.2771 0.23099 0.21884 0.34998 0.53082 0.32337 0.8479-0.03023 0.33941 0 0.75197 0 1.1875 0 3.6494 1.4742 6.801 3.6562 8.625 0.29833 0.23977 0.44211 0.62319 0.375 1-0.19261 1.134-0.65964 2.0667-1.2188 3.0938-0.14144 0.26827-0.39223 0.46206-0.6875 0.53125l-9.1875 2c-1.7745 0.41051-2.6767 1.8071-3.2188 3.7188-0.44552 1.5711-0.49844 3.3091-0.4375 4.75 12.501 0.01464 24.999-0.01402 37.5-0.0625-0.09526-1.5725-0.28774-3.3562-0.8125-4.9375-0.64481-1.943-1.6164-3.3294-3.4375-3.7188l-8.6875-1.6562c-0.45898-0.08914-0.80329-0.4717-0.84375-0.9375-0.01111-0.02048-0.02153-0.04133-0.03125-0.0625-0.0011-0.04656 3.67e-4 -0.01517 0-0.03125l-0.5-2.8438c-0.06266-0.36081 0.06768-0.72814 0.34375-0.96875 2.0849-1.8446 3.5-4.9543 3.5-8.5 1e-6 -0.04422 2.09e-4 -0.09906 0-0.125 0.0018-0.37547 0.20452-0.72123 0.53125-0.90625 0.04124-0.41268 0.04587-0.90492 0.125-1.4375 0.31121-2.0945-0.13789-4.6138-1.4688-6.5625-1.3309-1.9487-3.4875-3.3738-6.875-3.4375-0.29093-0.00547-0.5529-0.038255-0.8125-0.03125z" fill="none" opacity=".8" stroke="url(#e)" stroke-width="1.042"/>
 <path d="m23.75 5.3438c-4.2798 0.11549-6.6899 1.7115-8.0625 3.8438s-1.6651 4.8517-1.4375 7.2188c0.02159 0.22453 0.1108 0.44376 0.1875 0.65625 0.0042-0.02047-0.0043-0.04208 0-0.0625 0.03452-0.27614 0.28636-0.47202 0.5625-0.4375s0.47202 0.28636 0.4375 0.5625c-0.03373 0.37869-0.03125 0.81932-0.03125 1.25 0 2.8496 0.86456 5.4434 2.2812 7.375 4.7942-2.6203 9.8627-5.2321 15.156-7.2812 2.17e-4 -0.03134 0-0.06234 0-0.09375 1e-6 -0.04128 2.63e-4 -0.09244 0-0.125-0.0054-0.24371 0.16659-0.45542 0.40625-0.5 0.02067-0.10917 0.08035-0.15874 0.09375-0.28125 0.05011-0.45795 0.0505-0.96735 0.125-1.4688 0.33146-2.2308-0.14191-4.8887-1.5625-6.9688-1.4206-2.08-3.7367-3.6208-7.2812-3.6875-0.29517-0.00555-0.60261-0.00735-0.875 0z" fill="url(#f)" fill-rule="evenodd"/>
</svg>
